{
  "asset": {
    "generator": "Khronos glTF Blender I/O v1.5.17",
    "version": "2.0"
  },
  "scene": 0,
  "scenes": [
    {
      "name": "Scene",
      "nodes": [
        0
      ]
    }
  ],
  "nodes": [
    {
      "mesh": 0,
      "name": "sphere_gltf"
    }
  ],
  "materials": [
    {
      "doubleSided": true,
      "name": "floor_bricks_02",
      "normalTexture": {
        "index": 0
      },
      "pbrMetallicRoughness": {
        "baseColorTexture": {
          "index": 1
        },
        "metallicFactor": 0,
        "metallicRoughnessTexture": {
          "index": 2
        }
      }
    }
  ],
  "meshes": [
    {
      "name": "Sphere.001",
      "primitives": [
        {
          "attributes": {
            "POSITION": 0,
            "NORMAL": 1,
            "TEXCOORD_0": 2
          },
          "indices": 3,
          "material": 0
        }
      ]
    }
  ],
  "textures": [
    {
      "sampler": 0,
      "source": 0
    },
    {
      "sampler": 0,
      "source": 1
    },
    {
      "sampler": 0,
      "source": 2
    }
  ],
  "images": [
    {
      "mimeType": "image/jpeg",
      "name": "floor_bricks_02_nor_gl_4k",
      "uri": "textures/floor_bricks_02_nor_gl_4k.jpg"
    },
    {
      "mimeType": "image/jpeg",
      "name": "floor_bricks_02_diff_4k",
      "uri": "textures/floor_bricks_02_diff_4k.jpg"
    },
    {
      "mimeType": "image/jpeg",
      "name": "floor_bricks_02_rough_4k",
      "uri": "textures/floor_bricks_02_rough_4k.jpg"
    }
  ],
  "accessors": [
    {
      "bufferView": 0,
      "componentType": 5126,
      "count": 53921,
      "max": [
        0.65181964635849,
        0.655467689037323,
        0.6575470566749573
      ],
      "min": [
        -0.6518194079399109,
        -0.6600673198699951,
        -0.6575440168380737
      ],
      "type": "VEC3"
    },
    {
      "bufferView": 1,
      "componentType": 5126,
      "count": 53921,
      "type": "VEC3"
    },
    {
      "bufferView": 2,
      "componentType": 5126,
      "count": 53921,
      "type": "VEC2"
    },
    {
      "bufferView": 3,
      "componentType": 5123,
      "count": 322170,
      "type": "SCALAR"
    }
  ],
  "bufferViews": [
    {
      "buffer": 0,
      "byteLength": 647052,
      "byteOffset": 0
    },
    {
      "buffer": 0,
      "byteLength": 647052,
      "byteOffset": 647052
    },
    {
      "buffer": 0,
      "byteLength": 431368,
      "byteOffset": 1294104
    },
    {
      "buffer": 0,
      "byteLength": 644340,
      "byteOffset": 1725472
    }
  ],
  "samplers": [
    {
      "magFilter": 9729,
      "minFilter": 9987
    }
  ],
  "buffers": [
    {
      "byteLength": 2369812,
      "uri": "floor_bricks_02.bin"
    }
  ]
}